<svg width="96" height="96" viewBox="0 0 96 96" fill="none" xmlns="http://www.w3.org/2000/svg">
<rect width="96" height="96" rx="24" fill="white"/>
<path d="M74.375 25C79.1385 25 83 28.8615 83 33.625V62.375C83 67.1385 79.1385 71 74.375 71H22.625C17.8615 71 14 67.1385 14 62.375V33.625C14 28.8615 17.8615 25 22.625 25H74.375ZM22.3667 32.4402C21.0382 31.8409 19.4459 32.3338 18.7 33.6222C17.9542 34.9104 18.3194 36.5362 19.5001 37.39L19.7472 37.55L42.7388 50.861C46.3027 52.9241 50.6973 52.9241 54.2612 50.861L77.2528 37.55L77.4999 37.39C78.6806 36.5362 79.0458 34.9104 78.3 33.6222C77.5541 32.3338 75.9618 31.8409 74.6333 32.4402L74.3722 32.575L51.3806 45.8859C49.5989 46.9171 47.4011 46.9171 45.6194 45.8859L22.6278 32.575L22.3667 32.4402Z" fill="#222222"/>
</svg>
