<svg width="96" height="96" viewBox="0 0 96 96" fill="none" xmlns="http://www.w3.org/2000/svg">
<rect width="96" height="96" rx="24" fill="white"/>
<path d="M72.951 26.3934C68.362 24.3599 63.441 22.8617 58.2957 22.0036C58.202 21.987 58.1084 22.0284 58.0601 22.1112C57.4272 23.1983 56.7262 24.6165 56.2353 25.7312C50.7012 24.931 45.1955 24.931 39.775 25.7312C39.2839 24.5917 38.5575 23.1983 37.9217 22.1112C37.8735 22.0312 37.7799 21.9898 37.6861 22.0036C32.5437 22.8589 27.6227 24.3571 23.0308 26.3934C22.9911 26.41 22.957 26.4376 22.9344 26.4734C13.6002 39.9408 11.0431 53.0772 12.2975 66.0508C12.3032 66.1142 12.3401 66.1749 12.3912 66.2135C18.5496 70.5812 24.5151 73.2328 30.3698 74.9903C30.4635 75.018 30.5628 74.9849 30.6224 74.9103C32.0074 73.0838 33.2419 71.158 34.3004 69.1327C34.3629 69.0141 34.3033 68.8733 34.1756 68.8264C32.2174 68.109 30.3528 67.2344 28.5592 66.2411C28.4173 66.1611 28.406 65.9652 28.5365 65.8713C28.9139 65.5982 29.2915 65.314 29.6519 65.027C29.7171 64.9746 29.8079 64.9636 29.8846 64.9967C41.6679 70.1922 54.4246 70.1922 66.0689 64.9967C66.1455 64.9608 66.2364 64.9719 66.3044 65.0243C66.6649 65.3112 67.0424 65.5982 67.4227 65.8713C67.5532 65.9652 67.5447 66.1611 67.4028 66.2411C65.6092 67.2537 63.7446 68.109 61.7835 68.8237C61.6559 68.8706 61.5991 69.0141 61.6615 69.1327C62.7428 71.1551 63.9773 73.081 65.3367 74.9076C65.3935 74.9849 65.4956 75.018 65.5893 74.9903C71.4724 73.2328 77.4379 70.5812 83.5963 66.2135C83.6502 66.1749 83.6843 66.117 83.69 66.0535C85.1912 51.0547 81.1755 38.026 73.0446 26.4762C73.0248 26.4376 72.9908 26.41 72.951 26.3934ZM36.0601 58.1512C32.5125 58.1512 29.5894 55.0059 29.5894 51.143C29.5894 47.2802 32.4558 44.1348 36.0601 44.1348C39.6926 44.1348 42.5874 47.3078 42.5306 51.143C42.5306 55.0059 39.6642 58.1512 36.0601 58.1512ZM59.9842 58.1512C56.4368 58.1512 53.5137 55.0059 53.5137 51.143C53.5137 47.2802 56.38 44.1348 59.9842 44.1348C63.6169 44.1348 66.5116 47.3078 66.4549 51.143C66.4549 55.0059 63.6169 58.1512 59.9842 58.1512Z" fill="#222222"/>
</svg>
