<svg width="24" height="18" viewBox="0 0 24 18" fill="none" xmlns="http://www.w3.org/2000/svg">
<path d="M0 5.20794e-05H23.9965V18H0V5.20794e-05Z" fill="black"/>
<path fill-rule="evenodd" clip-rule="evenodd" d="M0 5.20794e-05L24 0V17.9999L0 18V5.20794e-05Z" fill="white"/>
<path fill-rule="evenodd" clip-rule="evenodd" d="M2.62943 5.46708L5.12574 1.7233L5.74958 2.13943L3.25327 5.88322L2.62943 5.46708ZM3.56519 6.09128L6.0615 2.3475L6.68534 2.76363L4.18903 6.50741L3.56519 6.09128ZM4.50096 6.71548L6.99727 2.9717L7.62111 3.38783L5.1248 7.13161L4.50096 6.71548Z" fill="#000001"/>
<path fill-rule="evenodd" clip-rule="evenodd" d="M16.354 14.622L18.8503 10.8782L19.4741 11.2943L16.9778 15.0381L16.354 14.622ZM17.2897 15.2462L19.7861 11.5024L20.4099 11.9185L17.9136 15.6623L17.2897 15.2462ZM18.2255 15.8704L20.7218 12.1266L21.3457 12.5427L18.8493 16.2865L18.2255 15.8704Z" fill="#000001"/>
<path fill-rule="evenodd" clip-rule="evenodd" d="M17.2902 12.542L20.4094 14.6227L17.2902 12.542Z" fill="black"/>
<path fill-rule="evenodd" clip-rule="evenodd" d="M8.24448 6.50812C8.90655 5.5152 9.93585 4.82601 11.106 4.59215C12.2761 4.3583 13.4911 4.59894 14.4839 5.26113C15.4766 5.92332 16.1656 6.95282 16.3994 8.12315C16.6333 9.29349 16.3927 10.5088 15.7306 11.5017L8.24448 6.50812Z" fill="#CD2E3A"/>
<path fill-rule="evenodd" clip-rule="evenodd" d="M8.24448 6.50812C7.58242 7.50103 7.34183 8.71633 7.57564 9.88666C7.80945 11.057 8.49851 12.0865 9.49123 12.7487C10.484 13.4109 11.699 13.6515 12.8691 13.4177C14.0392 13.1838 15.0685 12.4946 15.7306 11.5017C16.0616 11.0052 16.1819 10.3976 16.065 9.81243C15.9481 9.22726 15.6036 8.71251 15.1072 8.38141C14.6109 8.05032 14.0033 7.93 13.4183 8.04693C12.8332 8.16386 12.3186 8.50845 11.9875 9.00491L8.24448 6.50812Z" fill="#0047A0"/>
<path d="M11.9875 9.00491C12.6769 7.97109 12.3978 6.57409 11.3642 5.88462C10.3306 5.19515 8.93382 5.4743 8.24448 6.50812C7.55515 7.54193 7.83424 8.93893 8.86786 9.6284C9.90148 10.3179 11.2982 10.0387 11.9875 9.00491Z" fill="#CD2E3A"/>
<path fill-rule="evenodd" clip-rule="evenodd" d="M5.13605 16.2879L2.63974 12.5442L3.26358 12.128L5.75989 15.8718L5.13605 16.2879ZM6.07182 15.6637L3.57551 11.92L4.19935 11.5038L6.69566 15.2476L6.07182 15.6637ZM7.00758 15.0396L4.51127 11.2958L5.13511 10.8796L7.63142 14.6234L7.00758 15.0396Z" fill="#000001"/>
<path fill-rule="evenodd" clip-rule="evenodd" d="M18.8606 7.13304L16.3643 3.38925L16.9881 2.97312L19.4844 6.7169L18.8606 7.13304ZM19.7964 6.50884L17.3001 2.76505L17.9239 2.34892L20.4202 6.09271L19.7964 6.50884ZM20.7321 5.88464L18.2358 2.14086L18.8597 1.72472L21.356 5.46851L20.7321 5.88464Z" fill="#000001"/>
<path fill-rule="evenodd" clip-rule="evenodd" d="M4.6677 13.8959L5.60347 13.2717L4.6677 13.8959ZM17.3005 5.46921L18.3923 4.74098L17.3005 5.46921ZM19.328 4.11678L20.2638 3.49258L19.328 4.11678Z" fill="black"/>
</svg>
