<svg width="33" height="32" viewBox="0 0 33 32" fill="none" xmlns="http://www.w3.org/2000/svg">
<path d="M20.582 25.6787L18.0156 30.0176L15.333 25.3711L17.8994 21.0332L20.582 25.6787ZM12.8232 24.6992L8.17773 27.3809L8.12402 22.3408L12.7705 19.6592L12.8232 24.6992ZM27.8809 24.3213L22.8408 24.375L20.1592 19.7285L25.1992 19.6758L27.8809 24.3213ZM11.4658 17.3994L6.82031 20.082L2.48145 17.5156L7.12793 14.833L11.4658 17.3994ZM30.5176 14.4834L25.8711 17.166L21.5332 14.5996L26.1787 11.917L30.5176 14.4834ZM24.875 9.6582L20.2285 12.3398L20.1758 7.2998L24.8213 4.61816L24.875 9.6582ZM12.8398 12.2705L7.7998 12.3232L5.11816 7.67773L10.1582 7.62402L12.8398 12.2705ZM17.666 6.62793L15.0996 10.9658L12.417 6.32031L14.9834 1.98145L17.666 6.62793Z" fill="#222222" stroke="#222222" stroke-width="2"/>
</svg>
