<svg width="96" height="96" viewBox="0 0 96 96" fill="none" xmlns="http://www.w3.org/2000/svg">
<rect width="96" height="96" rx="24" fill="white"/>
<path d="M32.0213 54.6987C31.0187 54.6987 30.144 54.528 29.3973 54.208C28.6507 53.888 28.032 53.4187 27.5627 52.8427C27.072 52.2667 26.7093 51.584 26.4533 50.7947C26.1973 50.0053 26.0907 49.1733 26.0907 48.256C26.0907 47.3387 26.2187 46.4853 26.4533 45.696C26.7093 44.9067 27.072 44.2027 27.5627 43.6267C28.0533 43.0507 28.672 42.5813 29.3973 42.24C30.144 41.8987 31.0187 41.728 32.0213 41.728C33.024 41.728 33.8987 41.8987 34.6453 42.24C35.392 42.5813 36.0107 43.0293 36.5227 43.6267C37.0133 44.2027 37.376 44.9067 37.632 45.696C37.8667 46.4853 37.9947 47.3387 37.9947 48.256C37.9947 49.1733 37.8667 50.0053 37.632 50.7947C37.3973 51.584 37.0347 52.2667 36.5227 52.8427C36.032 53.4187 35.4133 53.888 34.6453 54.208C33.92 54.5493 33.024 54.6987 32.0213 54.6987ZM32.0213 52.1173C32.9173 52.1173 33.5573 51.776 33.9413 51.1147C34.3253 50.4533 34.5173 49.4933 34.5173 48.256C34.5173 47.0187 34.3253 46.0587 33.9413 45.3973C33.5573 44.736 32.9173 44.3947 32.0213 44.3947C31.1467 44.3947 30.5067 44.736 30.1227 45.3973C29.7387 46.0587 29.5253 47.0187 29.5253 48.256C29.5253 49.4933 29.7173 50.4533 30.1227 51.1147C30.5067 51.7973 31.1467 52.1173 32.0213 52.1173ZM43.072 49.024C42.176 48.768 41.472 48.384 40.9813 47.8933C40.4693 47.3813 40.2347 46.6347 40.2347 45.632C40.2347 44.416 40.6613 43.4773 41.536 42.7733C42.4107 42.0907 43.584 41.7493 45.0987 41.7493C46.3528 41.7555 47.5956 41.9867 48.768 42.432C48.7253 42.8373 48.6613 43.2853 48.5333 43.7333C48.4053 44.1813 48.256 44.5653 48.0853 44.9067C47.7013 44.7573 47.2747 44.608 46.8267 44.48C46.3573 44.352 45.8667 44.3093 45.376 44.3093C44.8427 44.3093 44.416 44.3947 44.1173 44.5653C43.8187 44.736 43.6693 44.992 43.6693 45.376C43.6693 45.7173 43.776 45.9733 43.9893 46.1227C44.2027 46.272 44.5013 46.4 44.9067 46.528L46.272 46.9333C46.72 47.0613 47.1253 47.2107 47.488 47.4027C47.8507 47.5947 48.1493 47.808 48.4053 48.0853C48.6613 48.3627 48.8533 48.6827 49.0027 49.088C49.152 49.4933 49.216 49.984 49.216 50.5387C49.216 51.136 49.088 51.6693 48.8533 52.1813C48.6035 52.6979 48.2386 53.1504 47.7867 53.504C47.3173 53.888 46.7413 54.1653 46.08 54.4C45.3403 54.6242 44.5702 54.7321 43.7973 54.72C43.4133 54.72 43.072 54.6987 42.752 54.6773C42.432 54.656 42.1333 54.6133 41.8347 54.5493C41.536 54.4853 41.2587 54.4213 40.96 54.336C40.6827 54.2507 40.3627 54.144 40.0213 54.016C40.0427 53.5893 40.128 53.1413 40.256 52.7147C40.384 52.2667 40.5333 51.84 40.7253 51.4347C41.2587 51.648 41.7493 51.7973 42.2187 51.904C42.688 52.0107 43.1787 52.0533 43.6907 52.0533C43.904 52.0533 44.16 52.032 44.416 51.9893C44.672 51.9467 44.928 51.8827 45.1413 51.776C45.3547 51.6693 45.5467 51.5413 45.696 51.3707C45.8453 51.2 45.9307 50.9867 45.9307 50.7093C45.9307 50.3253 45.824 50.048 45.5893 49.8773C45.3547 49.7067 45.0347 49.5573 44.6293 49.4293L43.072 49.024ZM51.456 42.048C52.032 41.9627 52.5867 41.8987 53.1627 41.8987C53.7173 41.8987 54.2933 41.9413 54.8693 42.048V48.5973C54.8693 49.2587 54.912 49.792 55.0187 50.2187C55.1253 50.6453 55.2747 50.9867 55.488 51.2213C55.7013 51.4773 55.9787 51.648 56.2987 51.7547C56.6187 51.8613 57.0027 51.904 57.4293 51.904C58.0267 51.904 58.5173 51.84 58.9227 51.7333V42.048C59.4987 41.9627 60.0533 41.8987 60.608 41.8987C61.1627 41.8987 61.7387 41.9413 62.3147 42.048V53.952C61.8027 54.1227 61.12 54.2933 60.288 54.464C58.6483 54.783 56.9647 54.8047 55.3173 54.528C54.5707 54.4 53.9093 54.1227 53.3333 53.7173C52.7573 53.312 52.3093 52.6933 51.9893 51.904C51.648 51.1147 51.4773 50.048 51.4773 48.7253V42.048H51.456ZM65.5147 54.4213C65.4293 53.824 65.3653 53.248 65.3653 52.672C65.3653 52.096 65.408 51.4987 65.5147 50.9013C66.112 50.816 66.688 50.752 67.264 50.752C67.84 50.752 68.4373 50.7947 69.0347 50.9013C69.12 51.4987 69.184 52.096 69.184 52.6507C69.184 53.248 69.1413 53.824 69.0347 54.4213C68.4373 54.5067 67.84 54.5707 67.2853 54.5707C66.688 54.5493 66.112 54.5067 65.5147 54.4213ZM65.4293 37.2053C66.048 37.12 66.6667 37.056 67.264 37.056C67.8827 37.056 68.5013 37.0987 69.1413 37.2053L68.9067 48.9173C68.352 49.0027 67.8187 49.0667 67.3067 49.0667C66.7733 49.0667 66.2187 49.024 65.6853 48.9173L65.4293 37.2053Z" fill="#222222"/>
<path d="M48 16C30.336 16 16 30.336 16 48C16 65.664 30.336 80 48 80C65.664 80 80 65.664 80 48C80 30.336 65.664 16 48 16ZM48 76.8C32.0853 76.8 19.2 63.9147 19.2 48C19.2 32.0853 32.0853 19.2 48 19.2C63.9147 19.2 76.8 32.0853 76.8 48C76.8 63.9147 63.9147 76.8 48 76.8Z" fill="#222222"/>
</svg>
