<svg width="96" height="96" viewBox="0 0 96 96" fill="none" xmlns="http://www.w3.org/2000/svg">
<g clip-path="url(#clip0_890_988)">
<rect width="96" height="96" rx="24" fill="white"/>
<path d="M55.102 8.08564C54.6846 8.21184 54.1895 8.62927 53.9177 9.09523C53.6265 9.60003 53.2382 11.0659 52.3159 15.2207C51.9276 16.9293 51.2869 19.7057 50.8889 21.3851C50.2191 24.1809 50.1511 24.5498 50.1123 25.7244C50.0832 26.433 50.0249 27.0155 49.9958 27.0155C49.957 27.0155 49.8211 26.9087 49.7046 26.7825C49.5784 26.6563 49.2775 26.4622 49.0348 26.3554C47.6077 25.7438 45.6759 26.103 41.3949 27.7727C40.162 28.2484 38.1913 28.957 37.007 29.3356C35.347 29.8792 34.6772 30.1413 34.0559 30.5102C33.6191 30.782 33.2308 30.9956 33.1919 30.9956C33.1531 30.9956 33.0657 30.8791 32.9881 30.7432C32.8424 30.452 30.0758 27.8989 28.4837 26.5786C26.9693 25.3167 25.1055 23.9091 24.3095 23.4237C22.8242 22.5112 21.2321 21.8705 20.4361 21.8705C19.9701 21.8705 19.7954 21.7831 19.7954 21.5695C19.7954 21.2492 19.4265 20.6376 19.0965 20.3852C18.0675 19.6086 16.6987 19.9483 15.9221 21.1909C14.1165 24.045 12.2623 35.9077 13.0098 39.8587C13.0874 40.2761 13.068 40.3829 12.8545 40.7421C12.7186 40.975 12.5147 41.4993 12.3982 41.9264C12.1943 42.6642 12.1846 42.8195 12.2332 46.2366C12.3205 53.6144 12.272 55.1676 11.8352 58.2255C11.5634 60.0699 11.3207 61.3125 10.8062 63.3026C10.5732 64.2248 10.3499 65.3412 10.3208 65.7877C10.2625 66.477 10.2819 66.6323 10.4567 66.9818C10.5732 67.205 10.777 67.4671 10.9032 67.5739C11.0586 67.6904 11.1848 67.9331 11.2527 68.234C11.5731 69.6416 13.0195 70.8842 15.2134 71.6317C16.4463 72.0491 17.4462 72.2433 18.8732 72.3307L20.0284 72.3986L20.1449 72.7869C20.2031 73.0005 20.5817 73.9421 20.9894 74.8741C21.3875 75.806 22.1641 77.7961 22.7077 79.291C24.5716 84.3875 25.6006 86.7756 27.6295 90.6975C29.0953 93.5224 30.765 96.3279 31.4931 97.1725C31.8329 97.5705 34.716 99.6867 35.2596 99.9294C35.4635 100.017 35.58 100.026 35.7644 99.9391C36.2498 99.7159 36.2401 99.4829 35.7062 97.4637C35.1043 95.1727 35.0655 95.0756 34.318 93.7554C33.3861 92.1439 31.4348 88.3871 30.2699 85.9893C29.105 83.5721 28.5614 82.3004 27.1926 78.7086C25.8433 75.1653 25.4452 74.2334 24.6104 72.5636C23.8241 70.991 23.4649 70.5056 22.9018 70.2144C22.6495 70.0882 22.465 69.8843 22.3194 69.5834C22.0476 69.0204 21.3292 68.4088 20.7176 68.2146C20.4555 68.137 19.6692 68.0302 18.98 67.9719C18.2907 67.9234 17.3297 67.7875 16.8443 67.6807C15.9997 67.4866 14.2135 66.8653 14.0291 66.7099C13.9805 66.6711 14.0776 66.4284 14.2427 66.1857C15.0969 64.8849 15.7667 62.3415 16.291 58.3711C16.7278 55.0802 16.786 52.3233 16.5434 47.353C16.4657 45.7512 16.3977 44.2077 16.3977 43.9262V43.4117L16.7084 43.5767C16.8831 43.6641 17.252 43.7417 17.5238 43.7417C18.3004 43.7417 18.7567 43.4311 19.5042 42.4118C19.8537 41.9361 20.5429 40.9945 21.0477 40.3246C22.3 38.6452 22.465 38.3152 22.465 37.4026C22.465 36.3251 21.9796 35.5388 21.0477 35.1116C20.6206 34.9272 20.6011 34.8301 20.8535 34.17L20.9603 33.9079L21.999 34.7136C23.3581 35.7718 25.2996 37.0629 26.0471 37.4124C27.3771 38.0336 28.2896 38.1016 29.0662 37.6453C29.7943 37.2279 30.1146 36.1698 29.7554 35.3349C29.503 34.733 28.707 33.9953 27.3188 33.0828C25.4258 31.8305 24.1541 30.8694 23.0863 29.8792C22.0476 28.9182 21.601 28.6755 20.9021 28.6658C20.1934 28.6658 19.6304 28.9861 19.2615 29.6074C19.0965 29.8792 18.7082 30.3064 18.3975 30.5588L17.8248 31.015L17.9024 30.452C17.9898 29.656 18.4072 27.4232 18.6402 26.4039L18.8441 25.5399L19.2032 25.6079C20.0963 25.7632 21.9408 26.9087 23.9697 28.5687C27.6877 31.5975 30.1534 33.5293 30.5126 33.704C30.7359 33.8205 31.1824 33.9564 31.5028 34.0244C31.8717 34.0923 32.1726 34.2283 32.3377 34.3836C32.9589 34.9563 33.5608 34.9952 35.0558 34.5486C38.5214 33.4905 41.2395 32.5877 42.9966 31.8984C44.0936 31.4616 45.773 30.8597 46.7341 30.5588C48.5494 29.9763 49.0445 29.7725 49.5784 29.3744C49.9181 29.122 50.2773 28.5105 50.2773 28.1804C50.2773 27.9474 50.4035 27.928 50.5783 28.1416C50.7918 28.394 51.219 28.5687 51.6461 28.5687C52.5295 28.5687 53.1896 27.8892 54.0633 26.0933C54.6166 24.9672 55.2962 22.1811 56.8106 14.9295L57.3251 12.5026L58.1405 12.5123C60.713 12.5414 65.4309 15.279 69.7702 19.2591C71.5467 20.89 72.2457 21.4724 72.6534 21.6763C72.9446 21.8122 73.1776 22.0646 73.5659 22.6568L74.0901 23.4528L73.7406 24.5303C73.2941 25.8797 73.0902 26.7437 73.0902 27.3067C73.0805 27.7047 73.0514 27.763 72.6922 28.0154L72.3039 28.2775L71.9739 28.0251C71.537 27.695 70.7507 27.4038 70.275 27.4038C70.0615 27.4038 69.8867 27.3747 69.8867 27.3456C69.8867 27.3164 69.9935 27.1514 70.1294 26.9767C70.2556 26.8019 70.4401 26.3942 70.5274 26.0544C70.8963 24.5789 70.0712 22.7441 68.6636 21.9578L68.1782 21.6763L68.3044 20.9288C68.4791 19.9969 68.4015 19.1814 68.1102 18.531C67.7802 17.8224 67.4598 17.4826 66.7609 17.1137C66.2269 16.8225 66.0425 16.774 65.2756 16.7448C64.6834 16.7157 63.9554 16.774 63.0623 16.9099C62.3342 17.0264 61.6741 17.1137 61.5867 17.1137C61.509 17.1137 61.3731 16.939 61.2858 16.7254C61.0042 16.0265 60.1888 15.5605 59.4802 15.6964C58.9462 15.7935 58.2861 16.2789 57.9852 16.7837C57.5775 17.4826 57.3348 18.2204 56.5387 21.2977C55.7621 24.2877 55.6068 25.2681 55.8107 25.8894C55.9563 26.336 56.4125 26.8699 56.8203 27.0834C57.2183 27.2873 58.1017 27.2873 58.4997 27.0834C59.4316 26.5981 59.8393 25.7244 60.4897 22.8606L60.9072 20.9871L63.936 20.9094L63.8 21.5986C63.4894 23.2781 64.2369 24.6663 65.8872 25.4817C66.5764 25.8215 66.5958 25.8506 66.9356 26.899C67.188 27.6562 67.4695 28.0833 67.7316 28.0833C67.819 28.0833 67.6734 28.3066 67.3919 28.5978C66.6832 29.3453 66.4502 29.8404 66.4405 30.6073C66.4405 31.1315 66.4891 31.316 66.722 31.714L66.9939 32.1897L66.557 32.5585C66.0328 33.0148 65.8095 33.4516 65.8095 34.0438C65.8095 34.869 66.2464 35.5679 67.023 35.9756C67.3045 36.1212 67.6443 36.1892 68.3044 36.2183L69.1975 36.2571L69.4887 36.626C70.0032 37.2764 71.0419 37.5871 71.7603 37.3153C71.9642 37.2376 72.0612 37.2764 72.4107 37.6065C73.1194 38.2666 74.1387 38.4219 75.1094 38.0142C75.3715 37.8977 75.7404 37.8686 76.4685 37.8783C77.3422 37.8977 77.5266 37.8686 77.9829 37.6647C78.643 37.3638 79.206 36.8008 79.4973 36.1601C79.672 35.7718 79.7982 35.6359 80.1088 35.4902C80.701 35.2281 81.497 34.3933 81.798 33.7429C82.4678 32.277 82.0018 30.8306 80.6331 30.1316L79.9826 29.7919L80.2448 29.6851C80.4001 29.6171 80.5748 29.5006 80.6525 29.4133C80.7204 29.3162 80.8466 29.2482 80.9146 29.2482C80.9922 29.2482 81.4776 29.4909 82.0018 29.7822C85.7975 31.8984 91.457 33.5681 94.2043 33.374L95.078 33.3157L94.6897 33.539C94.4761 33.6652 93.4957 34.1991 92.5055 34.7233C91.5153 35.2573 90.0592 36.0339 89.2534 36.461C87.0013 37.655 86.0984 38.3055 86.0984 38.7326C86.0984 39.1791 86.5838 39.8101 87.2148 40.1693C87.3701 40.2664 87.3701 40.2955 87.176 40.6547C87.0595 40.878 86.9721 41.2177 86.9721 41.4701C86.9721 42.14 87.6614 44.0038 88.8166 46.4793C89.3893 47.7024 90.2436 49.5372 90.7096 50.5565C91.991 53.3426 94.2431 57.8857 95.0003 59.1865L95.6604 60.3417L95.6896 55.7306L95.709 51.1098L94.1169 47.8577C92.2239 43.9941 91.6997 43.0719 90.5639 41.6546C90.0786 41.0624 89.7097 40.5479 89.7388 40.5091C89.7679 40.4703 89.9427 40.4023 90.1368 40.3732C90.7387 40.2567 91.9618 39.7422 93.8645 38.8102L95.709 37.8977V29.9569L95.0003 29.7045C94.612 29.5686 93.418 29.2288 92.3501 28.9667C90.0591 28.3843 88.603 27.9377 87.0692 27.3358C85.6228 26.7631 84.0113 25.9574 84.1181 25.8506C84.7491 25.2681 85.1762 24.9769 85.4092 24.9769C85.7198 24.9769 90.962 23.3169 91.6027 23.016C92.4181 22.6374 92.6705 21.7345 92.1269 21.1909C91.9715 21.0356 91.7289 20.8803 91.5735 20.8414C91.3308 20.7832 90.3601 20.89 89.6903 21.0647C89.4864 21.1133 89.5349 21.0259 90.0009 20.5405C90.6125 19.8998 90.729 19.5892 90.6028 19.065C90.496 18.6572 90.0009 18.2786 89.5544 18.2786C89.1272 18.2786 88.3797 18.6669 87.642 19.2591C87.2925 19.5503 85.8363 20.8317 84.4093 22.1131C82.9823 23.3946 81.7591 24.4527 81.6912 24.4721C81.4485 24.5303 78.6915 22.4141 78.7498 22.2199C78.8177 21.9869 81.3514 20.4046 83.3415 19.3465C85.6325 18.133 85.8072 17.9874 85.8072 17.2399C85.8072 16.9196 85.749 16.774 85.516 16.541C85.118 16.143 84.6617 16.075 83.9725 16.2886C83.3512 16.4827 81.5262 17.3855 80.4195 18.036C80.0021 18.2786 79.6429 18.4534 79.6138 18.434C79.5846 18.4048 79.8273 17.9777 80.1574 17.4826C80.4874 16.9875 80.7981 16.4536 80.8466 16.308C81.1573 15.4926 80.701 14.7839 79.8856 14.7839C78.9536 14.7839 78.1382 15.6673 76.4976 18.4437C76.1093 19.1038 75.7598 19.6377 75.721 19.6377C75.5171 19.6377 75.1094 19.1912 74.8376 18.6864C74.1095 17.3273 72.8378 15.9391 70.7022 14.1917C68.3432 12.2502 66.4308 10.9882 64.3048 9.96892C61.509 8.62927 59.3928 8.1536 57.7231 8.48365C57.2377 8.58073 57.16 8.57102 56.9076 8.40599C56.3543 8.01769 55.7039 7.9012 55.102 8.08564ZM76.4005 25.8117C76.5267 25.9477 77.0121 26.3748 77.4781 26.7534C77.944 27.132 78.3129 27.4523 78.2935 27.4718C78.2838 27.4912 78.1091 27.4329 77.9149 27.3553C77.4587 27.1611 76.5462 27.1708 75.9637 27.365C75.7113 27.4523 75.488 27.5106 75.4686 27.4912C75.4201 27.4329 76.0316 25.5594 76.0996 25.5594C76.1384 25.5594 76.2646 25.6758 76.4005 25.8117ZM79.206 28.1027C79.206 28.161 79.1478 28.1513 79.0604 28.0833C78.9828 28.0154 78.9148 27.9474 78.9148 27.928C78.9148 27.9086 78.9828 27.9183 79.0604 27.9474C79.1381 27.9863 79.206 28.0542 79.206 28.1027ZM77.3907 29.753C77.4781 29.8598 77.5849 30.0637 77.614 30.2093C77.8276 31.2383 78.2159 31.6946 79.1284 32.0052C79.6429 32.1799 79.74 32.2576 79.7691 32.4615C79.8079 32.8207 79.3905 33.2769 78.7206 33.6167C78.0799 33.937 77.7014 34.3447 77.5557 34.8592C77.3616 35.5776 77.1286 35.6941 76.2064 35.5485C75.6336 35.4611 75.4298 35.4708 74.9153 35.6164C74.5755 35.7038 74.1387 35.8009 73.9251 35.83L73.5465 35.8688L73.828 35.364C74.0901 34.8884 74.1581 34.8398 74.8667 34.5583C76.2452 34.0244 76.9733 33.1119 76.9733 31.947C76.9733 31.2383 76.75 30.6947 76.3035 30.2773C76.1384 30.1122 76.0025 29.9569 76.0025 29.9181C76.0025 29.7822 76.8277 29.4424 77.0218 29.5006C77.1286 29.5298 77.2936 29.6463 77.3907 29.753ZM71.0419 29.9181C72.3427 30.5102 72.4787 30.5005 72.8475 29.8987C72.9058 29.8016 73.1388 29.7142 73.4397 29.6754L73.9348 29.6171L74.0416 30.219C74.1095 30.5782 74.2746 31.0053 74.4493 31.2868C74.6046 31.5392 74.7405 31.8305 74.7405 31.9373C74.7405 32.1605 74.2357 32.6459 73.7406 32.8983C73.1873 33.1895 72.9058 33.4419 72.3622 34.1603C71.8574 34.8107 71.4691 35.1699 71.2652 35.1699C71.2167 35.1699 71.1002 34.9952 71.0031 34.7719C70.6439 33.9856 69.9741 33.7623 68.7121 34.0244C67.9937 34.17 67.7025 34.0535 67.6151 33.5973C67.5278 33.1022 67.6734 32.7042 67.9549 32.6653C68.7801 32.5683 68.9063 32.3838 68.6247 31.6751C68.382 31.0539 68.382 30.7626 68.6344 30.3549C68.8771 29.9569 69.5372 29.5395 69.9256 29.5395C70.0809 29.5395 70.5857 29.7142 71.0419 29.9181Z" fill="#222222"/>
<path d="M21.6399 44.3727C21.4457 44.4698 21.1642 44.6445 21.0089 44.761C20.7273 44.9649 20.7079 44.9649 20.2808 44.8096C19.8828 44.6737 19.8148 44.6737 19.4848 44.8096C18.8635 45.0717 18.582 45.7512 18.8246 46.3919C18.912 46.6055 18.8926 46.6928 18.7373 46.8579C18.4363 47.1782 18.1451 47.8966 18.1451 48.3334C18.1451 48.9159 18.4752 49.1974 19.0576 49.1197C19.2906 49.0809 19.6401 48.9838 19.8245 48.8965C20.174 48.7314 20.174 48.7314 20.5138 49.0324C20.9603 49.4207 21.4166 49.508 21.8631 49.2945C22.4456 49.0227 22.6397 48.1199 22.2709 47.4015L22.0961 47.0714L22.6397 46.5763C23.2707 46.0036 23.3872 45.7997 23.3872 45.2755C23.3872 44.431 22.4553 43.9456 21.6399 44.3727Z" fill="#222222"/>
<path d="M73.0417 44.8193C70.042 45.8386 67.2074 47.45 65.5668 49.0809C64.8873 49.7507 64.6349 50.0711 64.5572 50.3623C64.3146 51.2554 64.5378 52.0126 65.1882 52.5174C65.4795 52.731 65.6639 52.7892 66.1978 52.8183C66.955 52.8669 66.9939 52.8475 68.6247 51.8185C70.275 50.7797 71.4982 50.1196 73.2359 49.3527C75.4104 48.382 75.7793 48.1878 76.1967 47.7218C76.7015 47.1879 77.0704 46.4307 77.0704 45.9551C77.0704 45.625 77.0121 45.5279 76.6626 45.227C75.721 44.4115 74.6046 44.2951 73.0417 44.8193Z" fill="#222222"/>
<path d="M57.16 45.6832C56.5776 45.9939 56.2281 46.5181 56.0534 47.3918C55.8495 48.3431 56.0048 48.9159 56.6067 49.4983C57.1697 50.042 57.4124 50.1488 58.0531 50.1488C59.8005 50.1488 60.9072 48.2364 60.082 46.6249C59.5675 45.625 58.1502 45.1687 57.16 45.6832Z" fill="#222222"/>
<path d="M76.1967 49.2945C74.8279 49.6731 68.7898 52.0029 68.3918 52.3038C66.7415 53.5658 67.6346 55.8471 69.7799 55.8471C70.1294 55.8471 70.741 55.7598 71.1196 55.653C71.8865 55.4394 77.7208 53.3717 78.7207 52.964C79.8856 52.4786 80.4292 51.7699 80.3515 50.838C80.2933 50.1682 79.9341 49.6925 79.206 49.3139C78.7498 49.0906 78.575 49.0518 77.8567 49.0615C77.2936 49.0615 76.75 49.1392 76.1967 49.2945Z" fill="#222222"/>
<path d="M19.213 51.9932C18.7179 52.2456 18.5917 52.964 18.9217 53.7017C19.0285 53.925 19.0868 54.158 19.0576 54.2065C19.0285 54.2551 18.7567 54.4686 18.4461 54.6822C17.6597 55.2064 17.2908 55.6044 17.2132 55.983C17.1355 56.4005 17.3685 56.8567 17.7568 57.0606C18.2519 57.313 18.6596 57.245 19.6692 56.7111L20.6109 56.2257L20.9895 56.4296C21.6399 56.7985 22.1932 56.4296 22.1058 55.6821C22.0573 55.3326 22.1058 55.2647 22.7659 54.556C23.5911 53.6726 23.7755 53.2455 23.5426 52.7019C23.2222 51.935 22.4553 51.9835 21.0865 52.8378C20.8827 52.964 20.8438 52.9445 20.5041 52.5562C20.3099 52.3233 19.9993 52.0709 19.8245 52.0029C19.4459 51.8379 19.5139 51.8379 19.213 51.9932Z" fill="#222222"/>
<path d="M34.8228 54.0415C34.2598 54.2454 33.5608 54.7987 33.2502 55.2938C32.1241 57.1285 34.0462 58.9924 36.2304 58.1769C37.3565 57.7595 37.9875 56.6237 37.7157 55.5462C37.3953 54.3036 36.046 53.6047 34.8228 54.0415Z" fill="#222222"/>
<path d="M56.199 55.9151C56.0631 55.9442 55.4806 56.1092 54.8885 56.284C52.2189 57.1091 49.7143 57.5945 48.1222 57.5945C46.1225 57.5945 45.5012 58.0022 44.4625 60.0214C43.8509 61.2057 43.5791 61.5261 42.8607 61.8853C41.8123 62.4095 41.3949 63.0016 41.4628 63.8656C41.5502 64.8849 42.2977 65.448 43.5403 65.4577C45.307 65.4577 46.8991 64.4384 47.9378 62.6425L48.297 62.0115L49.3163 61.9435C49.8696 61.9144 50.918 61.7688 51.6364 61.6232C55.6748 60.8368 57.7328 59.9534 58.325 58.7303C58.6938 57.9731 58.5385 56.915 57.9755 56.4102C57.6066 56.0704 56.7135 55.8277 56.199 55.9151Z" fill="#222222"/>
<path d="M32.1726 63.8268C29.2603 64.5549 28.8817 64.6811 27.4644 65.38C26.2607 65.9722 25.9598 66.1663 25.4161 66.7099C24.9016 67.2244 24.7366 67.4671 24.6007 67.8943C24.2124 69.1271 24.921 70.0202 26.2995 70.0202C26.9111 70.0202 27.7168 69.7776 29.2409 69.1466C29.9981 68.8359 31.2116 68.4185 31.9299 68.2243C32.6483 68.0302 33.5511 67.7195 33.9394 67.5351C34.7354 67.1565 35.6382 66.3799 35.9198 65.8363C36.1819 65.3218 36.1625 64.6034 35.8906 64.1957C35.2791 63.3026 34.551 63.2346 32.1726 63.8268Z" fill="#222222"/>
<path d="M36.1528 68.3991C35.2597 68.7388 32.8619 70.1076 30.2311 71.7967C26.4354 74.2139 26.3966 74.2431 26.3286 75.0585C26.2801 75.5924 26.5131 76.039 26.9985 76.3302C27.445 76.602 27.9984 76.5729 28.8915 76.2525C30.3185 75.7283 33.9977 74.1654 34.5898 73.8353C36.1042 72.9811 37.7351 71.5929 38.1234 70.826C38.6185 69.8649 38.5894 69.0398 38.0457 68.5156C37.6477 68.137 36.9585 68.0884 36.1528 68.3991Z" fill="#222222"/>
</g>
<defs>
<clipPath id="clip0_890_988">
<rect width="96" height="96" rx="24" fill="white"/>
</clipPath>
</defs>
</svg>
