<svg width="96" height="96" viewBox="0 0 96 96" fill="none" xmlns="http://www.w3.org/2000/svg">
<rect width="96" height="96" rx="24" fill="white"/>
<path d="M48.8432 18C56.9941 18 63.6017 24.4946 63.6017 32.506V46C63.6017 54.0115 56.9941 60.506 48.8432 60.506C40.6923 60.506 34.0847 54.0115 34.0847 46V32.506C34.0847 24.4946 40.6923 18 48.8432 18ZM48.8432 21.3735C47.8954 21.3735 47.1271 22.1287 47.1271 23.0602V35.2048C47.1271 36.1364 47.8954 36.8916 48.8432 36.8916C49.791 36.8916 50.5593 36.1364 50.5593 35.2048V23.0602C50.5593 22.1287 49.791 21.3735 48.8432 21.3735Z" fill="#222222"/>
<path fill-rule="evenodd" clip-rule="evenodd" d="M32.0254 34.8675C32.0254 35.6127 31.4213 36.2169 30.676 36.2169H14.178C12.2824 36.2169 10.7458 37.7272 10.7458 39.5904V67.9277C10.7458 69.7908 12.2824 71.3012 14.178 71.3012H55.3644C57.26 71.3012 58.7966 69.7908 58.7966 67.9277V61.5318C58.7966 60.5689 59.2708 59.6779 59.9966 59.0453C63.4709 56.0172 65.661 51.5977 65.661 46.6747V36.5181C65.661 34.8612 67.0042 33.5181 68.661 33.5181H86C87.6569 33.5181 89 34.8612 89 36.5181V71C89 72.6569 87.6569 74 86 74H11C9.34314 74 8 72.6569 8 71V36.5181C8 34.8612 9.34315 33.5181 11 33.5181H30.676C31.4213 33.5181 32.0254 34.1222 32.0254 34.8675ZM73.2119 56.4578C71.6954 56.4578 70.4661 57.6661 70.4661 59.1566V60.8795C70.4661 62.5364 69.123 63.8795 67.4661 63.8795H65.661C64.1446 63.8795 62.9153 65.0878 62.9153 66.5783V68.6024C62.9153 70.0929 64.1446 71.3012 65.661 71.3012H82.822C84.3385 71.3012 85.5678 70.0929 85.5678 68.6024V66.5783C85.5678 65.0878 84.3385 63.8795 82.822 63.8795H81.017C79.3601 63.8795 78.017 62.5364 78.017 60.8795V59.1566C78.017 57.6661 76.7876 56.4578 75.2712 56.4578H73.2119Z" fill="#222222"/>
</svg>
