<svg width="32" height="32" viewBox="0 0 32 32" fill="none" xmlns="http://www.w3.org/2000/svg">
<path d="M21.9154 14.8652C18.6919 12.9509 13.3749 12.7749 10.2978 13.7088C9.80359 13.8588 9.28101 13.5797 9.13133 13.0857C8.98155 12.5912 9.26021 12.069 9.75475 11.9188C13.2871 10.8466 19.1592 11.0537 22.8701 13.2565C23.3145 13.5204 23.4603 14.0944 23.1969 14.5381C22.9332 14.9826 22.3587 15.1291 21.9154 14.8652ZM21.8098 17.7006C21.5836 18.0675 21.1038 18.1826 20.7373 17.9573C18.05 16.3054 13.9521 15.8269 10.7727 16.7919C10.3604 16.9165 9.92496 16.6841 9.79972 16.2725C9.67549 15.8603 9.90807 15.4256 10.3196 15.3002C13.9516 14.1981 18.4667 14.7319 21.5533 16.6287C21.9198 16.8544 22.0351 17.3344 21.8098 17.7006ZM20.5862 20.4235C20.4065 20.7183 20.0228 20.8106 19.7291 20.6309C17.3809 19.1957 14.4251 18.8716 10.9443 19.6667C10.6088 19.7436 10.2745 19.5334 10.198 19.198C10.1212 18.8627 10.3306 18.5283 10.6668 18.4518C14.476 17.581 17.7436 17.9558 20.3793 19.5664C20.6732 19.7459 20.7658 20.1298 20.5862 20.4235ZM16 6C10.4772 6 6 10.4772 6 15.9999C6 21.5232 10.4772 26 16 26C21.523 26 26 21.5232 26 15.9999C26 10.4772 21.523 6 16 6Z" fill="white"/>
</svg>
