<svg width="96" height="96" viewBox="0 0 96 96" fill="none" xmlns="http://www.w3.org/2000/svg">
<rect width="96" height="96" rx="24" fill="white"/>
<path d="M67.908 44.585C56.7871 37.9806 38.4435 37.3734 27.8272 40.5954C26.1224 41.1129 24.3195 40.1501 23.8031 38.4458C23.2863 36.7398 24.2477 34.9382 25.9539 34.4199C38.1406 30.7208 58.3992 31.4352 71.2017 39.0349C72.7351 39.9454 73.2381 41.9257 72.3293 43.4565C71.4197 44.9899 69.4376 45.4953 67.908 44.585ZM67.5438 54.3669C66.7635 55.633 65.1082 56.0301 63.8439 55.2527C54.5724 49.5536 40.4348 47.9026 29.466 51.2322C28.0435 51.6621 26.5411 50.86 26.109 49.4403C25.6804 48.0179 26.4829 46.5182 27.9027 46.0856C40.433 42.2833 56.0102 44.125 66.6589 50.669C67.9232 51.4477 68.3212 53.1038 67.5438 54.3669ZM63.3223 63.7612C62.7023 64.778 61.3786 65.0965 60.3656 64.4768C52.2639 59.5253 42.0667 58.4072 30.0577 61.1501C28.9004 61.4154 27.7471 60.6903 27.4832 59.5331C27.2181 58.3763 27.9405 57.2227 29.1003 56.9587C42.2422 53.9543 53.5153 55.2474 62.6088 60.804C63.6226 61.4233 63.9419 62.7477 63.3223 63.7612ZM47.5002 14C28.4465 14 13 29.4462 13 48.4995C13 67.5551 28.4465 83 47.5002 83C66.5542 83 82 67.5551 82 48.4995C82 29.4462 66.5542 14 47.5002 14Z" fill="#222222"/>
</svg>
