<svg width="15" height="15" viewBox="0 0 15 15" fill="none" xmlns="http://www.w3.org/2000/svg">
<path d="M7.49151 0C3.53341 0 0.305776 3.0339 0 6.89831L4.02605 8.55932C4.3658 8.32203 4.7735 8.18644 5.21518 8.18644C5.24915 8.18644 5.30011 8.18644 5.33409 8.18644L7.13477 5.61017C7.13477 5.59322 7.13477 5.59322 7.13477 5.57627C7.13477 4.01695 8.40883 2.74576 9.97169 2.74576C11.5345 2.74576 12.8086 4.01695 12.8086 5.57627C12.8086 7.13559 11.5345 8.40678 9.97169 8.40678C9.9547 8.40678 9.92072 8.40678 9.90374 8.40678L7.35561 10.2203C7.35561 10.2542 7.35561 10.2881 7.35561 10.322C7.35561 11.4915 6.4043 12.4407 5.23216 12.4407C4.19592 12.4407 3.34655 11.7119 3.1427 10.7288L0.254813 9.54237C1.13817 12.6949 4.04303 15 7.49151 15C11.6365 15 15 11.6441 15 7.50847C15 3.35593 11.6365 0 7.49151 0Z" fill="white"/>
<path d="M4.70555 11.3729L3.78822 11C3.9581 11.339 4.2299 11.6271 4.60362 11.7797C5.41903 12.1186 6.35334 11.7288 6.69309 10.9153C6.86297 10.5254 6.86297 10.0847 6.69309 9.69492C6.52322 9.30509 6.21744 9 5.82673 8.83051C5.43601 8.66102 5.01132 8.67797 4.65459 8.81356L5.60589 9.20339C6.20045 9.45763 6.48924 10.1356 6.23443 10.7288C5.9966 11.339 5.30011 11.6271 4.70555 11.3729Z" fill="white"/>
<path d="M11.8573 5.55932C11.8573 4.52542 11.0079 3.67797 9.97169 3.67797C8.93545 3.67797 8.08607 4.52542 8.08607 5.55932C8.08607 6.59322 8.93545 7.44068 9.97169 7.44068C11.0079 7.44068 11.8573 6.61017 11.8573 5.55932ZM8.54473 5.55932C8.54473 4.77966 9.17327 4.15254 9.97169 4.15254C10.7701 4.15254 11.3986 4.77966 11.3986 5.55932C11.3986 6.33898 10.7701 6.9661 9.97169 6.9661C9.17327 6.9661 8.54473 6.33898 8.54473 5.55932Z" fill="white"/>
</svg>
