<svg width="32" height="32" viewBox="0 0 32 32" fill="none" xmlns="http://www.w3.org/2000/svg">
<path fill-rule="evenodd" clip-rule="evenodd" d="M25.3766 8.02311C26.4093 8.29993 27.2225 9.11557 27.4985 10.1514C28 12.0287 28 15.9456 28 15.9456C28 15.9456 28 19.8624 27.4985 21.7399C27.2225 22.7755 26.4093 23.5912 25.3766 23.8681C23.505 24.3711 16 24.3711 16 24.3711C16 24.3711 8.495 24.3711 6.62335 23.8681C5.59076 23.5912 4.77749 22.7755 4.50151 21.7399C4 19.8624 4 15.9456 4 15.9456C4 15.9456 4 12.0287 4.50151 10.1514C4.77749 9.11557 5.59076 8.29993 6.62335 8.02311C8.495 7.52002 16 7.52002 16 7.52002C16 7.52002 23.505 7.52002 25.3766 8.02311ZM19.8176 15.9459L13.5449 19.5019V12.3895L19.8176 15.9459Z" fill="white"/>
</svg>
