<svg width="96" height="96" viewBox="0 0 96 96" fill="none" xmlns="http://www.w3.org/2000/svg">
<rect width="96" height="96" rx="24" fill="white"/>
<path d="M40.6477 58.4188V38.5812L58.1591 48.5005L40.6477 58.4188ZM79.5999 32.3392C78.8294 29.4502 76.559 27.1753 73.6764 26.4032C68.4516 25 47.5 25 47.5 25C47.5 25 26.5485 25 21.3235 26.4032C18.4409 27.1753 16.1705 29.4502 15.4 32.3392C14 37.5753 14 48.5 14 48.5C14 48.5 14 59.4246 15.4 64.6608C16.1705 67.5498 18.4409 69.8247 21.3235 70.5971C26.5485 72 47.5 72 47.5 72C47.5 72 68.4516 72 73.6764 70.5971C76.559 69.8247 78.8294 67.5498 79.5999 64.6608C81 59.4246 81 48.5 81 48.5C81 48.5 81 37.5753 79.5999 32.3392Z" fill="#222222"/>
</svg>
